<svg width="2209" height="8384" viewBox="0 0 2209 8384" fill="none" xmlns="http://www.w3.org/2000/svg">
<path d="M97 0.5V8383.5" stroke="white" stroke-opacity="0.06"/>
<path d="M147 0.5V8383.5" stroke="white" stroke-opacity="0.06"/>
<path d="M197 0.5V8383.5" stroke="white" stroke-opacity="0.06"/>
<path d="M247 0.5V8383.5" stroke="white" stroke-opacity="0.06"/>
<path d="M297 0.5V8383.5" stroke="white" stroke-opacity="0.06"/>
<path d="M347 0.5V8383.5" stroke="white" stroke-opacity="0.06"/>
<path d="M397 0.5V8383.5" stroke="white" stroke-opacity="0.06"/>
<path d="M447 0.5V8383.5" stroke="white" stroke-opacity="0.06"/>
<path d="M497 0.5V8383.5" stroke="white" stroke-opacity="0.06"/>
<path d="M547 0.5V8383.5" stroke="white" stroke-opacity="0.06"/>
<path d="M597 0.5V8383.5" stroke="white" stroke-opacity="0.06"/>
<path d="M647 0.5V8383.5" stroke="white" stroke-opacity="0.06"/>
<path d="M697 0.5V8383.5" stroke="white" stroke-opacity="0.06"/>
<path d="M747 0.5V8383.5" stroke="white" stroke-opacity="0.06"/>
<path d="M797 0.5V8383.5" stroke="white" stroke-opacity="0.06"/>
<path d="M847 0.5V8383.5" stroke="white" stroke-opacity="0.06"/>
<path d="M897 0.5V8383.5" stroke="white" stroke-opacity="0.06"/>
<path d="M947 0.5V8383.5" stroke="white" stroke-opacity="0.06"/>
<path d="M997 0.5V8383.5" stroke="white" stroke-opacity="0.06"/>
<path d="M1047 0.5V8383.5" stroke="white" stroke-opacity="0.06"/>
<path d="M1097 0.5V8383.5" stroke="white" stroke-opacity="0.06"/>
<path d="M1147 0.5V8383.5" stroke="white" stroke-opacity="0.06"/>
<path d="M1197 0.5V8383.5" stroke="white" stroke-opacity="0.06"/>
<path d="M1247 0.5V8383.5" stroke="white" stroke-opacity="0.06"/>
<path d="M1297 0.5V8383.5" stroke="white" stroke-opacity="0.06"/>
<path d="M1347 0.5V8383.5" stroke="white" stroke-opacity="0.06"/>
<path d="M1397 0.5V8383.5" stroke="white" stroke-opacity="0.06"/>
<path d="M1447 0.5V8383.5" stroke="white" stroke-opacity="0.06"/>
<path d="M1497 0.5V8383.5" stroke="white" stroke-opacity="0.06"/>
<path d="M1547 0.5V8383.5" stroke="white" stroke-opacity="0.06"/>
<path d="M1597 0.5V8383.5" stroke="white" stroke-opacity="0.06"/>
<path d="M1647 0.5V8383.5" stroke="white" stroke-opacity="0.06"/>
<path d="M1697 0.5V8383.5" stroke="white" stroke-opacity="0.06"/>
<path d="M1747 0.5V8383.5" stroke="white" stroke-opacity="0.06"/>
<path d="M1797 0.5V8383.5" stroke="white" stroke-opacity="0.06"/>
<path d="M1847 0.5V8383.5" stroke="white" stroke-opacity="0.06"/>
<path d="M1897 0.5V8383.5" stroke="white" stroke-opacity="0.06"/>
<path d="M1947 0.5V8383.5" stroke="white" stroke-opacity="0.06"/>
<path d="M0 0.5H2209" stroke="white" stroke-opacity="0.06"/>
<path d="M0 50.5H2209" stroke="white" stroke-opacity="0.06"/>
<path d="M0 100.5H2109" stroke="white" stroke-opacity="0.06"/>
<path d="M0 150.5H2109" stroke="white" stroke-opacity="0.06"/>
<path d="M0 200.5H2109" stroke="white" stroke-opacity="0.06"/>
<path d="M0 250.5H2109" stroke="white" stroke-opacity="0.06"/>
<path d="M0 300.5H2109" stroke="white" stroke-opacity="0.06"/>
<path d="M0 350.5H2109" stroke="white" stroke-opacity="0.06"/>
<path d="M0 400.5H2109" stroke="white" stroke-opacity="0.06"/>
<path d="M0 450.5H2109" stroke="white" stroke-opacity="0.06"/>
<path d="M0 500.5H2109" stroke="white" stroke-opacity="0.06"/>
<path d="M0 550.5H2109" stroke="white" stroke-opacity="0.06"/>
<path d="M0 600.5H2109" stroke="white" stroke-opacity="0.06"/>
<path d="M0 650.5H2109" stroke="white" stroke-opacity="0.06"/>
<path d="M0 700.5H2109" stroke="white" stroke-opacity="0.06"/>
<path d="M0 750.5H2109" stroke="white" stroke-opacity="0.06"/>
<path d="M0 800.5H2109" stroke="white" stroke-opacity="0.06"/>
<path d="M0 850.5H2109" stroke="white" stroke-opacity="0.06"/>
<path d="M0 900.5H2109" stroke="white" stroke-opacity="0.06"/>
<path d="M0 950.5H2109" stroke="white" stroke-opacity="0.06"/>
<path d="M0 1000.5H2109" stroke="white" stroke-opacity="0.06"/>
<path d="M0 1050.5H2109" stroke="white" stroke-opacity="0.06"/>
<path d="M0 1100.5H2109" stroke="white" stroke-opacity="0.06"/>
<path d="M0 1150.5H2109" stroke="white" stroke-opacity="0.06"/>
<path d="M0 1200.5H2109" stroke="white" stroke-opacity="0.06"/>
<path d="M0 1250.5H2109" stroke="white" stroke-opacity="0.06"/>
<path d="M0 1300.5H2109" stroke="white" stroke-opacity="0.06"/>
<path d="M0 1350.5H2109" stroke="white" stroke-opacity="0.06"/>
<path d="M0 1400.5H2109" stroke="white" stroke-opacity="0.06"/>
<path d="M0 1450.5H2109" stroke="white" stroke-opacity="0.06"/>
<path d="M0 1500.5H2109" stroke="white" stroke-opacity="0.06"/>
<path d="M0 1550.5H2109" stroke="white" stroke-opacity="0.06"/>
<path d="M0 1600.5H2109" stroke="white" stroke-opacity="0.06"/>
<path d="M0 1650.5H2109" stroke="white" stroke-opacity="0.06"/>
<path d="M0 1700.5H2109" stroke="white" stroke-opacity="0.06"/>
<path d="M0 1750.5H2109" stroke="white" stroke-opacity="0.06"/>
<path d="M0 1800.5H2109" stroke="white" stroke-opacity="0.06"/>
<path d="M0 1850.5H2109" stroke="white" stroke-opacity="0.06"/>
<path d="M0 1900.5H2109" stroke="white" stroke-opacity="0.06"/>
<path d="M0 1950.5H2109" stroke="white" stroke-opacity="0.06"/>
<path d="M0 2000.5H2109" stroke="white" stroke-opacity="0.06"/>
<path d="M0 2050.5H2109" stroke="white" stroke-opacity="0.06"/>
<path d="M0 2100.5H2109" stroke="white" stroke-opacity="0.06"/>
<path d="M0 2150.5H2109" stroke="white" stroke-opacity="0.06"/>
<path d="M0 2200.5H2109" stroke="white" stroke-opacity="0.06"/>
<path d="M0 2250.5H2109" stroke="white" stroke-opacity="0.06"/>
<path d="M0 2300.5H2109" stroke="white" stroke-opacity="0.06"/>
<path d="M0 2350.5H2109" stroke="white" stroke-opacity="0.06"/>
<path d="M0 2400.5H2109" stroke="white" stroke-opacity="0.06"/>
<path d="M0 2450.5H2109" stroke="white" stroke-opacity="0.06"/>
<path d="M0 2500.5H2109" stroke="white" stroke-opacity="0.06"/>
<path d="M0 2550.5H2109" stroke="white" stroke-opacity="0.06"/>
<path d="M0 2600.5H2109" stroke="white" stroke-opacity="0.06"/>
<path d="M0 2650.5H2109" stroke="white" stroke-opacity="0.06"/>
<path d="M0 2700.5H2109" stroke="white" stroke-opacity="0.06"/>
<path d="M0 2750.5H2109" stroke="white" stroke-opacity="0.06"/>
<path d="M0 2800.5H2109" stroke="white" stroke-opacity="0.06"/>
<path d="M0 2850.5H2109" stroke="white" stroke-opacity="0.06"/>
<path d="M0 2900.5H2109" stroke="white" stroke-opacity="0.06"/>
<path d="M0 2950.5H2109" stroke="white" stroke-opacity="0.06"/>
<path d="M0 3000.5H2109" stroke="white" stroke-opacity="0.06"/>
<path d="M0 3050.5H2109" stroke="white" stroke-opacity="0.06"/>
<path d="M0 3100.5H2109" stroke="white" stroke-opacity="0.06"/>
<path d="M0 3150.5H2109" stroke="white" stroke-opacity="0.06"/>
<path d="M0 3200.5H2109" stroke="white" stroke-opacity="0.06"/>
<path d="M0 3250.5H2109" stroke="white" stroke-opacity="0.06"/>
<path d="M0 3300.5H2109" stroke="white" stroke-opacity="0.06"/>
<path d="M0 3350.5H2109" stroke="white" stroke-opacity="0.06"/>
<path d="M0 3400.5H2109" stroke="white" stroke-opacity="0.06"/>
<path d="M0 3450.5H2109" stroke="white" stroke-opacity="0.06"/>
<path d="M0 3500.5H2109" stroke="white" stroke-opacity="0.06"/>
<path d="M0 3550.5H2109" stroke="white" stroke-opacity="0.06"/>
<path d="M0 3600.5H2109" stroke="white" stroke-opacity="0.06"/>
<path d="M0 3650.5H2109" stroke="white" stroke-opacity="0.06"/>
<path d="M0 3700.5H2109" stroke="white" stroke-opacity="0.06"/>
<path d="M0 3750.5H2109" stroke="white" stroke-opacity="0.06"/>
<path d="M0 3800.5H2109" stroke="white" stroke-opacity="0.06"/>
<path d="M0 3850.5H2109" stroke="white" stroke-opacity="0.06"/>
<path d="M0 3900.5H2109" stroke="white" stroke-opacity="0.06"/>
<path d="M0 3950.5H2109" stroke="white" stroke-opacity="0.06"/>
<path d="M0 4000.5H2109" stroke="white" stroke-opacity="0.06"/>
<path d="M0 4050.5H2109" stroke="white" stroke-opacity="0.06"/>
<path d="M0 4100.5H2109" stroke="white" stroke-opacity="0.06"/>
<path d="M0 4150.5H2109" stroke="white" stroke-opacity="0.06"/>
<path d="M0 4200.5H2109" stroke="white" stroke-opacity="0.06"/>
<path d="M0 4250.5H2109" stroke="white" stroke-opacity="0.06"/>
<path d="M0 4300.5H2109" stroke="white" stroke-opacity="0.06"/>
<path d="M0 4350.5H2109" stroke="white" stroke-opacity="0.06"/>
<path d="M0 4400.5H2109" stroke="white" stroke-opacity="0.06"/>
<path d="M0 4450.5H2109" stroke="white" stroke-opacity="0.06"/>
<path d="M0 4500.5H2109" stroke="white" stroke-opacity="0.06"/>
<path d="M0 4550.5H2109" stroke="white" stroke-opacity="0.06"/>
<path d="M0 4600.5H2109" stroke="white" stroke-opacity="0.06"/>
<path d="M0 4650.5H2109" stroke="white" stroke-opacity="0.06"/>
<path d="M0 4700.5H2109" stroke="white" stroke-opacity="0.06"/>
<path d="M0 4750.5H2109" stroke="white" stroke-opacity="0.06"/>
<path d="M0 4800.5H2109" stroke="white" stroke-opacity="0.06"/>
<path d="M0 4850.5H2109" stroke="white" stroke-opacity="0.06"/>
<path d="M0 4900.5H2109" stroke="white" stroke-opacity="0.06"/>
<path d="M0 4950.5H2109" stroke="white" stroke-opacity="0.06"/>
<path d="M0 5000.5H2109" stroke="white" stroke-opacity="0.06"/>
<path d="M0 5050.5H2109" stroke="white" stroke-opacity="0.06"/>
<path d="M0 5100.5H2109" stroke="white" stroke-opacity="0.06"/>
<path d="M0 5150.5H2109" stroke="white" stroke-opacity="0.06"/>
<path d="M0 5200.5H2109" stroke="white" stroke-opacity="0.06"/>
<path d="M0 5250.5H2109" stroke="white" stroke-opacity="0.06"/>
<path d="M0 5300.5H2109" stroke="white" stroke-opacity="0.06"/>
<path d="M0 5350.5H2109" stroke="white" stroke-opacity="0.06"/>
<path d="M0 5400.5H2109" stroke="white" stroke-opacity="0.06"/>
<path d="M0 5450.5H2109" stroke="white" stroke-opacity="0.06"/>
<path d="M0 5500.5H2109" stroke="white" stroke-opacity="0.06"/>
<path d="M0 5550.5H2109" stroke="white" stroke-opacity="0.06"/>
<path d="M0 5600.5H2109" stroke="white" stroke-opacity="0.06"/>
<path d="M0 5650.5H2109" stroke="white" stroke-opacity="0.06"/>
<path d="M0 5700.5H2109" stroke="white" stroke-opacity="0.06"/>
<path d="M0 5750.5H2109" stroke="white" stroke-opacity="0.06"/>
<path d="M0 5800.5H2109" stroke="white" stroke-opacity="0.06"/>
<path d="M0 5850.5H2109" stroke="white" stroke-opacity="0.06"/>
<path d="M0 5900.5H2109" stroke="white" stroke-opacity="0.06"/>
<path d="M0 5950.5H2109" stroke="white" stroke-opacity="0.06"/>
<path d="M0 6000.5H2109" stroke="white" stroke-opacity="0.06"/>
<path d="M0 6050.5H2109" stroke="white" stroke-opacity="0.06"/>
<path d="M0 6100.5H2109" stroke="white" stroke-opacity="0.06"/>
<path d="M0 6150.5H2109" stroke="white" stroke-opacity="0.06"/>
<path d="M0 6200.5H2109" stroke="white" stroke-opacity="0.06"/>
<path d="M0 6250.5H2109" stroke="white" stroke-opacity="0.06"/>
<path d="M0 6300.5H2109" stroke="white" stroke-opacity="0.06"/>
<path d="M0 6350.5H2109" stroke="white" stroke-opacity="0.06"/>
<path d="M0 6400.5H2109" stroke="white" stroke-opacity="0.06"/>
<path d="M0 6450.5H2109" stroke="white" stroke-opacity="0.06"/>
<path d="M0 6500.5H2109" stroke="white" stroke-opacity="0.06"/>
<path d="M0 6550.5H2109" stroke="white" stroke-opacity="0.06"/>
<path d="M0 6600.5H2109" stroke="white" stroke-opacity="0.06"/>
<path d="M0 6650.5H2109" stroke="white" stroke-opacity="0.06"/>
<path d="M0 6700.5H2109" stroke="white" stroke-opacity="0.06"/>
<path d="M0 6750.5H2109" stroke="white" stroke-opacity="0.06"/>
<path d="M0 6800.5H2109" stroke="white" stroke-opacity="0.06"/>
<path d="M0 6850.5H2109" stroke="white" stroke-opacity="0.06"/>
<path d="M0 6900.5H2109" stroke="white" stroke-opacity="0.06"/>
<path d="M0 6950.5H2109" stroke="white" stroke-opacity="0.06"/>
<path d="M0 7000.5H2109" stroke="white" stroke-opacity="0.06"/>
<path d="M0 7050.5H2109" stroke="white" stroke-opacity="0.06"/>
<path d="M0 7100.5H2109" stroke="white" stroke-opacity="0.06"/>
<path d="M0 7150.5H2109" stroke="white" stroke-opacity="0.06"/>
<path d="M0 7200.5H2109" stroke="white" stroke-opacity="0.06"/>
<path d="M0 7250.5H2109" stroke="white" stroke-opacity="0.06"/>
<path d="M0 7300.5H2109" stroke="white" stroke-opacity="0.06"/>
<path d="M0 7350.5H2109" stroke="white" stroke-opacity="0.06"/>
<path d="M0 7400.5H2109" stroke="white" stroke-opacity="0.06"/>
<path d="M0 7450.5H2109" stroke="white" stroke-opacity="0.06"/>
<path d="M0 7500.5H2109" stroke="white" stroke-opacity="0.06"/>
<path d="M0 7550.5H2109" stroke="white" stroke-opacity="0.06"/>
<path d="M0 7600.5H2109" stroke="white" stroke-opacity="0.06"/>
<path d="M0 7650.5H2109" stroke="white" stroke-opacity="0.06"/>
<path d="M0 7700.5H2109" stroke="white" stroke-opacity="0.06"/>
<path d="M0 7750.5H2109" stroke="white" stroke-opacity="0.06"/>
<path d="M0 7800.5H2109" stroke="white" stroke-opacity="0.06"/>
<path d="M0 7850.5H2109" stroke="white" stroke-opacity="0.06"/>
<path d="M0 7900.5H2109" stroke="white" stroke-opacity="0.06"/>
<path d="M0 7950.5H2109" stroke="white" stroke-opacity="0.06"/>
<path d="M0 8000.5H2109" stroke="white" stroke-opacity="0.06"/>
<path d="M0 8050.5H2109" stroke="white" stroke-opacity="0.06"/>
<path d="M0 8100.5H2109" stroke="white" stroke-opacity="0.06"/>
<path d="M0 8150.5H2109" stroke="white" stroke-opacity="0.06"/>
</svg>
